<svg width="1448" height="566" viewBox="0 0 1448 566" fill="none" xmlns="http://www.w3.org/2000/svg">
<path d="M77.6367 290.439C76.3346 289.625 74.6257 288.201 72.5098 286.167C70.4753 284.132 68.6849 281.365 67.1387 277.866C65.7552 274.367 65.0635 271.03 65.0635 267.856C65.0635 267.205 65.1042 266.595 65.1855 266.025C65.4297 262.363 66.04 259.311 67.0166 256.87C67.9932 254.347 68.6849 252.801 69.0918 252.231C72.1842 246.616 75.236 241.001 78.2471 235.385C84.8389 223.097 91.4307 210.849 98.0225 198.642C98.5921 197.829 100.057 196.323 102.417 194.126C104.696 191.928 107.788 189.853 111.694 187.9C115.519 185.866 120.076 184.686 125.366 184.36C129.924 184.36 133.789 184.889 136.963 185.947C140.137 187.086 142.334 188.063 143.555 188.877C148.6 191.644 152.466 194.695 155.151 198.032C157.756 201.369 159.505 203.973 160.4 205.844C158.936 206.089 157.186 206.699 155.151 207.676C153.117 208.571 151.082 209.995 149.048 211.948C147.664 213.494 146.525 215.163 145.63 216.953C144.491 219.313 143.84 221.551 143.677 223.667C143.514 225.701 143.433 227.329 143.433 228.55C143.433 229.445 143.473 230.259 143.555 230.991C143.717 232.863 143.84 233.88 143.921 234.043C144.979 239.739 146.444 245.314 148.315 250.766C150.187 256.219 152.1 261.305 154.053 266.025C155.273 269.118 156.372 271.966 157.349 274.57C159.627 281.162 161.255 287.184 162.231 292.636C163.208 298.089 163.9 303.094 164.307 307.651C164.876 311.313 165.202 315.464 165.283 320.102C165.446 324.741 165.527 327.549 165.527 328.525C165.527 336.175 164.673 344.801 162.964 354.404C160.929 365.309 156.82 376.336 150.635 387.485C145.915 395.298 141.235 401.767 136.597 406.894C132.039 411.94 129.15 414.951 127.93 415.927C125.407 418.532 121.46 421.828 116.089 425.815C113.485 427.931 108.195 430.901 100.22 434.726C92.2445 438.47 82.2347 440.748 70.1904 441.562C69.2952 441.644 68.278 441.684 67.1387 441.684C64.2904 441.684 60.791 441.522 56.6406 441.196C50.6999 440.789 44.2301 439.324 37.2314 436.802C30.3141 434.197 23.641 429.762 17.2119 423.496C15.9098 422.357 13.6719 419.671 10.498 415.439C7.4056 411.126 4.88281 406.162 2.92969 400.547C0.976562 394.85 0 389.316 0 383.945C0 381.341 0.203451 378.615 0.610352 375.766C2.15658 367.221 4.76074 360.304 8.42285 355.014C12.085 349.725 15.0553 346.144 17.334 344.272C20.8333 356.316 26.5299 366.123 34.4238 373.691C42.3177 381.26 51.3102 385.573 61.4014 386.631C62.7035 386.712 64.0055 386.753 65.3076 386.753C70.1904 386.753 74.6663 386.02 78.7354 384.555C83.7809 382.684 87.9313 380.568 91.1865 378.208C94.5231 375.766 96.7204 374.057 97.7783 373.081C104.533 366.489 109.497 357.415 112.671 345.859C115.845 334.303 117.432 322.747 117.432 311.191C117.432 308.668 117.35 306.146 117.188 303.623C116.374 291.741 114.421 281.08 111.328 271.64C108.236 262.2 104.858 254.144 101.196 247.47C93.3838 261.793 85.5306 276.116 77.6367 290.439ZM333.008 340.976L333.252 341.831C333.415 342.482 333.537 343.336 333.618 344.394C333.7 344.883 333.74 345.412 333.74 345.981C333.74 346.551 333.7 347.161 333.618 347.812V347.934C333.618 349.074 332.886 351.678 331.421 355.747C330.037 359.816 327.108 364.455 322.632 369.663C317.912 374.464 312.826 378.167 307.373 380.771C301.921 383.375 296.875 385.247 292.236 386.386C287.679 387.444 284.302 388.055 282.104 388.218C281.372 390.089 279.907 393.1 277.71 397.251C275.594 401.401 272.786 405.633 269.287 409.946C267.985 411.411 266.683 412.794 265.381 414.096C264.079 415.399 262.98 416.456 262.085 417.27L260.62 418.613C257.935 420.892 256.144 422.316 255.249 422.885C250.854 426.141 247.233 428.501 244.385 429.966C240.723 432.244 235.636 434.645 229.126 437.168C222.697 439.691 215.047 441.155 206.177 441.562H203.857C200.765 441.562 197.347 441.318 193.604 440.83C188.883 440.179 183.879 438.51 178.589 435.825C171.509 432 166.341 426.873 163.086 420.444C159.749 414.015 158.081 406.935 158.081 399.204C158.081 388.624 160.522 378.167 165.405 367.832C170.207 357.497 176.636 348.097 184.692 339.634C192.668 331.251 201.497 324.497 211.182 319.37C220.947 314.324 230.794 311.598 240.723 311.191C241.536 311.11 242.391 311.069 243.286 311.069C245.483 311.069 247.843 311.273 250.366 311.679C258.83 313.226 266.357 317.051 272.949 323.154C279.541 329.258 284.139 336.582 286.743 345.127C287.801 348.056 288.33 352.41 288.33 358.188V361.606C292.725 360.792 297.648 359.246 303.101 356.968C309.855 353.875 315.43 350.416 319.824 346.592C324.3 342.685 327.718 339.227 330.078 336.216C331.136 337.355 332.113 338.942 333.008 340.976ZM258.301 392.856C261.475 390.171 263.753 387.77 265.137 385.654C264.323 385.654 261.719 384.962 257.324 383.579C253.011 382.114 248.291 379.551 243.164 375.888C238.118 372.145 234.009 366.815 230.835 359.897C228.882 354.689 227.905 349.887 227.905 345.493C227.905 345.33 227.905 344.109 227.905 341.831C227.987 339.471 228.353 337.151 229.004 334.873C227.783 335.605 226.278 336.745 224.487 338.291C220.907 341.627 218.14 344.923 216.187 348.178C214.315 351.434 212.85 354.363 211.792 356.968L211.548 357.212V357.334C208.13 364.821 206.421 372.145 206.421 379.306C206.421 382.562 206.868 385.573 207.764 388.34C208.74 391.188 210.205 393.67 212.158 395.786C215.332 398.878 218.791 400.831 222.534 401.645C225.871 402.296 228.638 402.622 230.835 402.622H231.567C235.392 402.54 239.705 401.727 244.507 400.18C247.843 399.448 252.441 397.007 258.301 392.856ZM275.269 363.437C276.082 359.857 276.489 356.479 276.489 353.305C276.489 351.596 276.367 349.969 276.123 348.423C275.472 343.947 273.844 340.61 271.24 338.413C268.473 336.541 265.299 335.605 261.719 335.605C260.091 335.605 258.382 335.809 256.592 336.216C250.732 337.518 246.785 340.203 244.751 344.272C244.425 345.33 244.263 346.347 244.263 347.324C244.263 347.975 244.303 348.585 244.385 349.155C244.792 350.783 245.28 352.166 245.85 353.305C246.419 354.445 246.785 355.055 246.948 355.136C249.715 358.799 253.703 361.24 258.911 362.461C262.492 363.274 266.235 363.681 270.142 363.681C271.851 363.681 273.56 363.6 275.269 363.437ZM450.073 371.616C450.968 373.895 451.416 375.929 451.416 377.719C451.416 378.045 451.335 378.777 451.172 379.917C451.09 381.056 450.928 381.911 450.684 382.48C449.219 385.41 446.818 389.479 443.481 394.687C441.61 397.617 438.721 401.808 434.814 407.26C430.908 412.632 426.27 418.125 420.898 423.74C415.527 429.274 409.709 433.79 403.442 437.29C398.315 440.138 393.066 441.562 387.695 441.562C386.475 441.562 385.254 441.481 384.033 441.318C378.825 440.342 374.023 438.104 369.629 434.604C365.234 431.024 362.061 426.71 360.107 421.665C359.619 420.281 359.253 418.939 359.009 417.636C353.149 424.554 346.558 430.454 339.233 435.337C333.049 439.487 326.701 441.562 320.19 441.562C318.97 441.562 317.749 441.481 316.528 441.318C311.32 440.342 306.519 438.104 302.124 434.604C297.729 431.024 294.556 426.71 292.603 421.665C291.463 418.003 290.894 414.625 290.894 411.533C290.894 410.149 291.016 408.807 291.26 407.505C291.829 401.157 293.091 395.705 295.044 391.147C297.078 386.59 298.869 383.131 300.415 380.771C300.822 380.039 301.147 379.428 301.392 378.94L321.655 340.61C327.271 329.787 332.926 319.004 338.623 308.261C346.029 311.435 351.969 315.83 356.445 321.445C360.921 327.06 363.363 333.286 363.77 340.122V340.976C363.77 344.801 363.241 348.219 362.183 351.23C361.125 354.241 360.026 356.642 358.887 358.432C352.376 371.453 347.046 381.87 342.896 389.682C342.896 389.764 342.855 389.845 342.773 389.927C342.041 391.229 341.309 392.897 340.576 394.931C340.251 395.827 340.088 396.64 340.088 397.373C340.088 398.268 340.332 399.082 340.82 399.814C341.309 400.302 341.919 400.628 342.651 400.791C343.384 400.954 344.198 401.076 345.093 401.157H345.337C349.731 401.157 353.8 399.041 357.544 394.809C361.369 390.578 364.827 385.939 367.92 380.893V380.771C368.408 380.039 368.774 379.428 369.019 378.94C375.692 366.163 382.406 353.387 389.16 340.61C394.857 329.787 400.513 319.004 406.128 308.261C413.534 311.435 419.474 315.83 423.95 321.445C428.507 327.06 430.99 333.286 431.396 340.122V340.976C431.396 344.801 430.868 348.219 429.81 351.23C428.752 354.241 427.612 356.642 426.392 358.432C419.881 371.453 414.591 381.87 410.522 389.682C410.441 389.764 410.4 389.845 410.4 389.927C409.587 391.229 408.813 392.897 408.081 394.931C407.837 395.745 407.715 396.518 407.715 397.251C407.715 398.227 407.959 399.082 408.447 399.814C408.936 400.302 409.505 400.628 410.156 400.791C410.889 400.954 411.702 401.076 412.598 401.157C417.155 401.157 421.387 398.96 425.293 394.565C429.199 390.171 432.699 385.451 435.791 380.405C438.232 376.906 441.04 371.738 444.214 364.902C444.865 365.309 445.76 366.041 446.899 367.099C448.12 368.157 449.178 369.663 450.073 371.616ZM584.473 371.738C585.286 373.935 585.693 375.97 585.693 377.842V378.696C585.531 380.649 585.286 381.951 584.961 382.602C583.496 385.532 581.095 389.601 577.759 394.809C575.968 397.739 573.12 401.889 569.214 407.26C565.308 412.713 560.628 418.206 555.176 423.74C549.805 429.355 543.986 433.913 537.72 437.412C532.756 440.179 527.669 441.562 522.461 441.562C521.159 441.562 519.816 441.481 518.433 441.318C513.224 440.423 508.423 438.185 504.028 434.604C499.634 431.024 496.46 426.751 494.507 421.787C493.368 418.043 492.798 414.666 492.798 411.655C492.798 410.272 492.92 408.929 493.164 407.627C493.408 403.558 494.303 399.489 495.85 395.42C497.396 391.351 499.878 385.898 503.296 379.062C503.784 378.086 504.272 377.15 504.761 376.255C505.33 375.034 505.9 373.854 506.47 372.715C510.783 364.088 513.753 357.659 515.381 353.427C516.276 351.149 516.724 349.318 516.724 347.934C516.724 346.714 516.398 345.818 515.747 345.249C515.177 344.679 514.526 344.313 513.794 344.15C513.062 343.987 512.329 343.906 511.597 343.906H511.23C506.185 343.906 500.854 346.917 495.239 352.939C494.344 355.218 493.449 357.049 492.554 358.432C483.439 376.58 474.365 394.769 465.332 412.998C462.321 419.101 459.31 425.164 456.299 431.186C455.485 432.733 454.712 434.279 453.979 435.825C453.084 437.778 452.148 439.691 451.172 441.562H449.463C448.812 441.644 448.161 441.684 447.51 441.684C440.348 441.684 434.163 439.243 428.955 434.36C427.897 433.384 426.88 432.326 425.903 431.186C423.869 428.501 422.567 425.897 421.997 423.374C421.509 420.77 421.265 418.735 421.265 417.27V417.026C421.265 413.934 421.549 411.33 422.119 409.214C422.607 407.26 422.933 406.121 423.096 405.796C430.501 391.147 437.907 376.458 445.312 361.728L467.529 317.539C468.913 314.935 470.256 312.29 471.558 309.604C471.802 309.197 472.005 308.75 472.168 308.261C486.003 314.365 494.303 323.724 497.07 336.338C499.756 334.303 503.296 331.821 507.69 328.891C512.085 325.962 516.357 323.52 520.508 321.567C522.135 320.835 524.821 319.899 528.564 318.76C531.494 317.946 534.79 317.539 538.452 317.539H539.551C541.829 317.539 544.312 317.742 546.997 318.149C550.171 318.719 553.345 320.184 556.519 322.544C559.123 324.741 561.076 327.101 562.378 329.624C563.761 332.147 564.657 334.425 565.063 336.46C565.47 338.413 565.674 339.674 565.674 340.244C565.755 340.976 565.796 341.668 565.796 342.319C565.796 344.435 565.511 346.51 564.941 348.545C564.128 351.312 562.744 354.608 560.791 358.432C554.281 371.535 548.95 381.992 544.8 389.804C544.8 389.886 544.759 389.927 544.678 389.927C543.945 391.31 543.213 392.978 542.48 394.931C542.155 395.827 541.992 396.64 541.992 397.373C541.992 398.349 542.236 399.163 542.725 399.814C543.213 400.384 543.823 400.75 544.556 400.913C545.288 401.076 546.061 401.157 546.875 401.157H547.119C551.595 401.157 555.745 399 559.57 394.687C563.477 390.293 566.976 385.573 570.068 380.527C572.51 377.028 575.317 371.86 578.491 365.024C579.142 365.431 580.078 366.163 581.299 367.221C582.438 368.279 583.496 369.785 584.473 371.738ZM744.507 268.222C737.671 282.301 730.835 296.339 723.999 310.337L683.472 393.589C682.983 394.809 682.658 396.03 682.495 397.251V397.617C682.495 398.675 682.78 399.57 683.35 400.302C683.431 400.465 683.675 400.709 684.082 401.035C684.57 401.279 685.303 401.442 686.279 401.523C689.453 401.442 692.627 400.018 695.801 397.251C699.056 394.402 701.904 391.31 704.346 387.973C706.868 384.637 708.577 382.236 709.473 380.771C711.833 377.272 714.64 372.104 717.896 365.268C718.547 365.675 719.442 366.408 720.581 367.466C721.72 368.524 722.778 370.029 723.755 371.982C724.65 374.098 725.098 376.01 725.098 377.719C725.098 378.126 725.016 378.94 724.854 380.161C724.772 381.3 724.609 382.195 724.365 382.846C722.9 385.776 720.5 389.845 717.163 395.053L716.919 395.542C714.233 399.774 710.124 405.47 704.59 412.632C699.137 419.712 692.505 426.181 684.692 432.041C676.961 437.9 668.416 441.115 659.058 441.684C657.349 441.684 655.884 441.644 654.663 441.562C653.442 441.481 652.669 441.44 652.344 441.44C647.624 440.464 643.758 438.836 640.747 436.557C637.736 434.279 635.661 432.244 634.521 430.454C634.115 429.884 633.748 429.355 633.423 428.867C633.179 428.379 632.975 427.972 632.812 427.646L632.568 427.158C631.673 425.368 631.022 423.618 630.615 421.909C625.651 426.629 619.507 431.105 612.183 435.337C604.94 439.487 597.127 441.603 588.745 441.684C587.362 441.684 585.368 441.44 582.764 440.952C580.241 440.382 577.515 439.243 574.585 437.534C569.865 434.279 566.488 430.576 564.453 426.426C562.5 422.194 561.239 418.857 560.669 416.416C559.692 412.347 559.204 408.156 559.204 403.843C559.204 394.24 562.174 382.928 568.115 369.907C574.137 356.805 584.229 345.005 598.389 334.507L604.858 330.6C609.172 327.996 614.827 325.473 621.826 323.032C628.825 320.509 636.475 319.207 644.775 319.126C647.298 319.207 649.455 319.451 651.245 319.858L653.931 320.469C660.441 322.015 665.771 323.927 669.922 326.206L718.506 226.108C719.564 226.434 721.517 227.41 724.365 229.038C727.295 230.584 730.387 232.944 733.643 236.118C736.898 239.292 739.624 243.401 741.821 248.447C743.449 252.597 744.385 256.422 744.629 259.922C744.71 261.386 744.751 262.729 744.751 263.95C744.751 265.578 744.67 267.002 744.507 268.222ZM619.507 400.791C622.925 399.326 626.912 395.867 631.47 390.415C636.108 384.962 640.544 379.062 644.775 372.715C649.089 366.286 652.588 360.914 655.273 356.601C656.006 355.136 656.698 353.631 657.349 352.085C657.837 351.19 658.285 350.254 658.691 349.277C659.017 348.219 659.18 347.08 659.18 345.859C659.18 345.371 659.139 344.598 659.058 343.54C658.976 342.4 658.366 341.22 657.227 340C656.331 339.186 655.355 338.738 654.297 338.657C653.32 338.494 652.547 338.413 651.978 338.413H651.733C648.153 338.413 643.921 340.244 639.038 343.906C634.237 347.487 629.557 352.125 625 357.822C620.443 363.437 616.618 369.459 613.525 375.888C610.433 382.317 608.887 388.299 608.887 393.833V393.955C608.887 394.85 609.009 396.03 609.253 397.495C609.497 398.878 610.189 400.018 611.328 400.913C612.305 401.564 613.363 401.889 614.502 401.889C614.909 401.889 615.601 401.808 616.577 401.645C617.635 401.483 618.612 401.198 619.507 400.791ZM714.6 440.952C709.798 439.568 706.136 437.534 703.613 434.848C701.09 432.163 699.544 430.21 698.975 428.989C696.94 425.49 695.801 422.56 695.557 420.2C695.312 417.759 695.19 415.927 695.19 414.707C695.19 413.079 695.312 411.614 695.557 410.312C695.964 407.952 696.289 406.447 696.533 405.796C711.426 375.766 726.359 345.737 741.333 315.708C756.226 285.76 771.159 255.771 786.133 225.742C788.33 226.719 791.26 228.672 794.922 231.601C798.584 234.45 802.002 238.559 805.176 243.93C808.35 249.953 810.018 254.713 810.181 258.213C810.425 261.712 810.547 264.194 810.547 265.659C810.547 269.24 810.262 272.413 809.692 275.18C808.797 279.087 808.105 281.569 807.617 282.627C800.7 296.299 793.783 310.011 786.865 323.764C785.156 327.264 783.447 330.722 781.738 334.14C784.098 331.618 787.842 328.769 792.969 325.595C794.515 324.538 797.119 323.154 800.781 321.445C804.525 319.736 808.431 318.76 812.5 318.515C818.929 318.678 824.788 321.038 830.078 325.595C835.449 330.071 839.274 334.954 841.553 340.244C843.343 344.638 844.238 349.399 844.238 354.526C844.238 359.49 843.424 364.78 841.797 370.395C838.46 381.87 832.723 393.1 824.585 404.087C816.447 415.073 807.088 423.943 796.509 430.698C786.011 437.371 775.309 440.708 764.404 440.708H762.085C755.981 440.138 750.448 438.673 745.483 436.313C740.601 433.872 736.369 431.186 732.788 428.257C731.242 431.024 729.736 433.831 728.271 436.679C727.539 438.144 726.807 439.568 726.074 440.952C724.772 441.359 723.185 441.562 721.313 441.562C719.36 441.562 717.122 441.359 714.6 440.952ZM750.977 399.814L751.587 400.058C751.994 400.221 752.482 400.384 753.052 400.547C753.703 400.709 754.395 400.791 755.127 400.791C760.661 400.791 766.113 399 771.484 395.42C776.937 391.758 781.901 387.16 786.377 381.626C790.934 376.092 794.678 370.355 797.607 364.414C800.537 358.473 802.124 354.323 802.368 351.963C802.694 349.603 802.856 348.219 802.856 347.812C802.856 344.557 801.514 342.929 798.828 342.929H798.706C795.614 342.929 791.667 344.72 786.865 348.301C782.145 351.881 776.815 356.764 770.874 362.949C765.015 369.866 760.173 376.336 756.348 382.358C752.523 388.299 749.756 393.589 748.047 398.227C748.779 398.797 749.756 399.326 750.977 399.814ZM1017.09 340.976L1017.33 341.831C1017.5 342.482 1017.62 343.336 1017.7 344.394C1017.78 344.883 1017.82 345.412 1017.82 345.981C1017.82 346.551 1017.78 347.161 1017.7 347.812V347.934C1017.7 349.074 1016.97 351.678 1015.5 355.747C1014.12 359.816 1011.19 364.455 1006.71 369.663C1001.99 374.464 996.908 378.167 991.455 380.771C986.003 383.375 980.957 385.247 976.318 386.386C971.761 387.444 968.384 388.055 966.187 388.218C965.454 390.089 963.989 393.1 961.792 397.251C959.676 401.401 956.868 405.633 953.369 409.946C952.067 411.411 950.765 412.794 949.463 414.096C948.161 415.399 947.062 416.456 946.167 417.27L944.702 418.613C942.017 420.892 940.226 422.316 939.331 422.885C934.937 426.141 931.315 428.501 928.467 429.966C924.805 432.244 919.718 434.645 913.208 437.168C906.779 439.691 899.129 441.155 890.259 441.562H887.939C884.847 441.562 881.429 441.318 877.686 440.83C872.965 440.179 867.961 438.51 862.671 435.825C855.591 432 850.423 426.873 847.168 420.444C843.831 414.015 842.163 406.935 842.163 399.204C842.163 388.624 844.604 378.167 849.487 367.832C854.289 357.497 860.718 348.097 868.774 339.634C876.75 331.251 885.579 324.497 895.264 319.37C905.029 314.324 914.876 311.598 924.805 311.191C925.618 311.11 926.473 311.069 927.368 311.069C929.565 311.069 931.925 311.273 934.448 311.679C942.912 313.226 950.439 317.051 957.031 323.154C963.623 329.258 968.221 336.582 970.825 345.127C971.883 348.056 972.412 352.41 972.412 358.188V361.606C976.807 360.792 981.73 359.246 987.183 356.968C993.937 353.875 999.512 350.416 1003.91 346.592C1008.38 342.685 1011.8 339.227 1014.16 336.216C1015.22 337.355 1016.19 338.942 1017.09 340.976ZM942.383 392.856C945.557 390.171 947.835 387.77 949.219 385.654C948.405 385.654 945.801 384.962 941.406 383.579C937.093 382.114 932.373 379.551 927.246 375.888C922.201 372.145 918.091 366.815 914.917 359.897C912.964 354.689 911.987 349.887 911.987 345.493C911.987 345.33 911.987 344.109 911.987 341.831C912.069 339.471 912.435 337.151 913.086 334.873C911.865 335.605 910.36 336.745 908.569 338.291C904.989 341.627 902.222 344.923 900.269 348.178C898.397 351.434 896.932 354.363 895.874 356.968L895.63 357.212V357.334C892.212 364.821 890.503 372.145 890.503 379.306C890.503 382.562 890.951 385.573 891.846 388.34C892.822 391.188 894.287 393.67 896.24 395.786C899.414 398.878 902.873 400.831 906.616 401.645C909.953 402.296 912.72 402.622 914.917 402.622H915.649C919.474 402.54 923.787 401.727 928.589 400.18C931.925 399.448 936.523 397.007 942.383 392.856ZM959.351 363.437C960.164 359.857 960.571 356.479 960.571 353.305C960.571 351.596 960.449 349.969 960.205 348.423C959.554 343.947 957.926 340.61 955.322 338.413C952.555 336.541 949.382 335.605 945.801 335.605C944.173 335.605 942.464 335.809 940.674 336.216C934.814 337.518 930.868 340.203 928.833 344.272C928.507 345.33 928.345 346.347 928.345 347.324C928.345 347.975 928.385 348.585 928.467 349.155C928.874 350.783 929.362 352.166 929.932 353.305C930.501 354.445 930.868 355.055 931.03 355.136C933.797 358.799 937.785 361.24 942.993 362.461C946.574 363.274 950.317 363.681 954.224 363.681C955.933 363.681 957.642 363.6 959.351 363.437ZM1145.02 371.982C1145.83 374.179 1146.24 376.214 1146.24 378.086C1146.24 378.33 1146.2 379.062 1146.12 380.283C1146.04 381.422 1145.83 382.317 1145.51 382.969C1144.04 385.817 1141.64 389.886 1138.31 395.176C1138.22 395.257 1138.14 395.379 1138.06 395.542C1135.38 399.936 1131.23 405.755 1125.61 412.998C1120 420.241 1113.2 426.792 1105.22 432.651C1097.33 438.51 1088.58 441.522 1078.98 441.684C1078.08 441.684 1077.07 441.644 1075.93 441.562C1067.22 441.318 1060.22 437.737 1054.93 430.82C1052 426.426 1050.5 422.153 1050.42 418.003C1047.4 421.177 1043.54 424.635 1038.82 428.379C1034.1 432.041 1028.81 435.174 1022.95 437.778C1017.09 440.382 1010.95 441.684 1004.52 441.684C1003.13 441.684 1001.18 441.44 998.657 440.952C996.134 440.382 993.368 439.243 990.356 437.534C985.636 434.36 982.259 430.657 980.225 426.426C978.271 422.194 977.051 418.857 976.562 416.416C975.505 412.265 974.976 407.993 974.976 403.598C974.976 394.077 977.987 382.806 984.009 369.785C990.031 356.764 1000.08 345.005 1014.16 334.507L1020.75 330.6C1025.07 327.996 1030.72 325.473 1037.72 323.032C1044.72 320.509 1052.37 319.207 1060.67 319.126C1063.11 319.288 1065.23 319.533 1067.02 319.858L1069.7 320.469C1077.84 322.503 1084.11 324.904 1088.5 327.671C1092.98 319.044 1096.52 312.697 1099.12 308.628C1100.18 308.872 1102.25 309.767 1105.35 311.313C1108.52 312.859 1111.86 315.219 1115.36 318.393C1118.94 321.567 1121.83 325.799 1124.02 331.089C1125.41 334.913 1126.18 338.413 1126.34 341.587C1126.42 342.645 1126.46 343.662 1126.46 344.638C1126.46 346.998 1126.18 349.358 1125.61 351.719C1125.12 354.079 1124.55 356.072 1123.9 357.7C1119.83 367.303 1115.28 375.726 1110.23 382.969C1107.46 387.2 1105.35 390.781 1103.88 393.711C1103.07 395.42 1102.66 396.885 1102.66 398.105C1102.66 398.919 1102.86 399.611 1103.27 400.18C1103.76 400.669 1104.33 400.994 1104.98 401.157C1105.71 401.32 1106.53 401.442 1107.42 401.523H1107.67C1112.14 401.523 1116.29 399.326 1120.12 394.931C1124.02 390.537 1127.52 385.817 1130.62 380.771C1133.06 377.272 1135.86 372.145 1139.04 365.39C1139.69 365.716 1140.58 366.408 1141.72 367.466C1142.94 368.524 1144.04 370.029 1145.02 371.982ZM1035.28 400.791C1039.43 399 1044.23 394.647 1049.68 387.729C1055.14 380.731 1060.14 373.65 1064.7 366.489C1069.34 359.328 1072.39 354.485 1073.85 351.963C1074.1 351.474 1074.38 350.498 1074.71 349.033C1074.87 347.894 1074.95 346.714 1074.95 345.493C1074.95 345.086 1074.91 344.354 1074.83 343.296C1074.75 342.238 1074.14 341.139 1073 340C1072.1 339.267 1071.17 338.82 1070.19 338.657C1069.21 338.494 1068.4 338.413 1067.75 338.413H1067.63C1064.05 338.413 1059.81 340.244 1054.93 343.906C1050.13 347.487 1045.41 352.125 1040.77 357.822C1036.21 363.437 1032.39 369.459 1029.3 375.888C1026.29 382.317 1024.78 388.299 1024.78 393.833V394.687C1024.78 395.42 1024.86 396.437 1025.02 397.739C1025.27 398.96 1025.96 400.058 1027.1 401.035C1028.16 401.686 1029.3 402.011 1030.52 402.011C1030.84 402.011 1031.49 401.93 1032.47 401.767C1033.45 401.523 1034.38 401.198 1035.28 400.791ZM1282.71 371.738C1283.61 374.017 1284.06 376.01 1284.06 377.719V378.574C1283.81 380.608 1283.57 381.951 1283.33 382.602C1281.86 385.532 1279.46 389.601 1276.12 394.809C1274.25 397.739 1271.36 401.889 1267.46 407.26C1263.55 412.713 1258.91 418.206 1253.54 423.74C1248.17 429.355 1242.35 433.913 1236.08 437.412C1231.04 440.179 1225.91 441.562 1220.7 441.562C1219.4 441.562 1218.06 441.481 1216.67 441.318C1211.47 440.423 1206.67 438.185 1202.27 434.604C1197.88 431.024 1194.7 426.751 1192.75 421.787C1191.69 418.043 1191.16 414.585 1191.16 411.411C1191.16 410.109 1191.24 408.847 1191.41 407.627C1191.57 404.372 1192.34 400.75 1193.73 396.762C1194.78 393.751 1196.45 389.804 1198.73 384.922H1198.61C1199.34 383.457 1200.11 381.992 1200.93 380.527C1202.8 377.028 1204.63 373.61 1206.42 370.273C1208.78 364.983 1209.96 360.385 1209.96 356.479C1209.96 353.224 1209.11 350.416 1207.4 348.056C1206.99 347.487 1206.14 346.673 1204.83 345.615C1203.61 344.557 1202.03 343.54 1200.07 342.563C1198.45 341.831 1196.98 341.261 1195.68 340.854L1170.78 391.147C1162.48 407.993 1154.22 424.798 1146 441.562C1131.51 440.097 1121.91 433.465 1117.19 421.665C1116.21 418.41 1115.72 415.439 1115.72 412.754C1115.72 411.696 1115.93 410.027 1116.33 407.749C1116.74 405.389 1117.31 403.436 1118.04 401.889C1128.38 381.219 1138.71 360.508 1149.05 339.756L1180.05 277.5C1181.11 277.907 1183.06 278.924 1185.91 280.552C1188.84 282.098 1191.94 284.458 1195.19 287.632C1198.45 290.724 1201.17 294.793 1203.37 299.839C1205 304.07 1205.93 307.895 1206.18 311.313C1206.26 312.778 1206.3 314.162 1206.3 315.464C1206.3 317.091 1206.22 318.475 1206.05 319.614V320.957C1206.05 321.445 1206.05 322.177 1206.05 323.154C1206.14 324.131 1206.46 325.392 1207.03 326.938C1207.19 327.508 1207.64 328.362 1208.37 329.502C1209.19 330.56 1210.45 331.78 1212.16 333.164C1213.7 334.303 1215.17 335.158 1216.55 335.727C1218.02 336.216 1219.6 336.704 1221.31 337.192C1222.86 337.518 1224.57 338.006 1226.44 338.657C1231.4 339.959 1235.84 342.034 1239.75 344.883C1243.65 348.219 1246.3 351.678 1247.68 355.259C1249.15 358.839 1249.92 361.24 1250 362.461C1250.16 363.03 1250.28 364.251 1250.37 366.123C1250.45 366.692 1250.49 367.262 1250.49 367.832C1250.49 369.297 1250.33 371.006 1250 372.959C1248.78 378.737 1247.03 383.579 1244.75 387.485C1243.53 389.764 1242.59 391.839 1241.94 393.711C1241.62 394.769 1241.46 395.786 1241.46 396.762C1241.46 397.658 1241.58 398.512 1241.82 399.326C1242.07 399.977 1242.43 400.506 1242.92 400.913C1243.57 401.32 1244.3 401.523 1245.12 401.523C1246.42 401.523 1248.29 400.913 1250.73 399.692C1253.17 398.471 1255.57 396.803 1257.93 394.687C1258.67 394.036 1259.64 392.856 1260.86 391.147C1262.17 389.357 1264.12 386.59 1266.72 382.846C1267.29 382.114 1267.86 381.3 1268.43 380.405C1270.87 376.987 1273.68 371.86 1276.86 365.024C1277.51 365.35 1278.4 366.082 1279.54 367.221C1280.76 368.279 1281.82 369.785 1282.71 371.738ZM1447.39 268.222C1440.55 282.301 1433.72 296.339 1426.88 310.337L1386.35 393.589C1385.86 394.809 1385.54 396.03 1385.38 397.251V397.617C1385.38 398.675 1385.66 399.57 1386.23 400.302C1386.31 400.465 1386.56 400.709 1386.96 401.035C1387.45 401.279 1388.18 401.442 1389.16 401.523C1392.33 401.442 1395.51 400.018 1398.68 397.251C1401.94 394.402 1404.79 391.31 1407.23 387.973C1409.75 384.637 1411.46 382.236 1412.35 380.771C1414.71 377.272 1417.52 372.104 1420.78 365.268C1421.43 365.675 1422.32 366.408 1423.46 367.466C1424.6 368.524 1425.66 370.029 1426.64 371.982C1427.53 374.098 1427.98 376.01 1427.98 377.719C1427.98 378.126 1427.9 378.94 1427.73 380.161C1427.65 381.3 1427.49 382.195 1427.25 382.846C1425.78 385.776 1423.38 389.845 1420.04 395.053L1419.8 395.542C1417.11 399.774 1413 405.47 1407.47 412.632C1402.02 419.712 1395.39 426.181 1387.57 432.041C1379.84 437.9 1371.3 441.115 1361.94 441.684C1360.23 441.684 1358.76 441.644 1357.54 441.562C1356.32 441.481 1355.55 441.44 1355.22 441.44C1350.5 440.464 1346.64 438.836 1343.63 436.557C1340.62 434.279 1338.54 432.244 1337.4 430.454C1337 429.884 1336.63 429.355 1336.3 428.867C1336.06 428.379 1335.86 427.972 1335.69 427.646L1335.45 427.158C1334.55 425.368 1333.9 423.618 1333.5 421.909C1328.53 426.629 1322.39 431.105 1315.06 435.337C1307.82 439.487 1300.01 441.603 1291.63 441.684C1290.24 441.684 1288.25 441.44 1285.64 440.952C1283.12 440.382 1280.4 439.243 1277.47 437.534C1272.75 434.279 1269.37 430.576 1267.33 426.426C1265.38 422.194 1264.12 418.857 1263.55 416.416C1262.57 412.347 1262.08 408.156 1262.08 403.843C1262.08 394.24 1265.06 382.928 1271 369.907C1277.02 356.805 1287.11 345.005 1301.27 334.507L1307.74 330.6C1312.05 327.996 1317.71 325.473 1324.71 323.032C1331.71 320.509 1339.36 319.207 1347.66 319.126C1350.18 319.207 1352.34 319.451 1354.13 319.858L1356.81 320.469C1363.32 322.015 1368.65 323.927 1372.8 326.206L1421.39 226.108C1422.44 226.434 1424.4 227.41 1427.25 229.038C1430.18 230.584 1433.27 232.944 1436.52 236.118C1439.78 239.292 1442.5 243.401 1444.7 248.447C1446.33 252.597 1447.27 256.422 1447.51 259.922C1447.59 261.386 1447.63 262.729 1447.63 263.95C1447.63 265.578 1447.55 267.002 1447.39 268.222ZM1322.39 400.791C1325.81 399.326 1329.79 395.867 1334.35 390.415C1338.99 384.962 1343.42 379.062 1347.66 372.715C1351.97 366.286 1355.47 360.914 1358.15 356.601C1358.89 355.136 1359.58 353.631 1360.23 352.085C1360.72 351.19 1361.17 350.254 1361.57 349.277C1361.9 348.219 1362.06 347.08 1362.06 345.859C1362.06 345.371 1362.02 344.598 1361.94 343.54C1361.86 342.4 1361.25 341.22 1360.11 340C1359.21 339.186 1358.24 338.738 1357.18 338.657C1356.2 338.494 1355.43 338.413 1354.86 338.413H1354.61C1351.03 338.413 1346.8 340.244 1341.92 343.906C1337.12 347.487 1332.44 352.125 1327.88 357.822C1323.32 363.437 1319.5 369.459 1316.41 375.888C1313.31 382.317 1311.77 388.299 1311.77 393.833V393.955C1311.77 394.85 1311.89 396.03 1312.13 397.495C1312.38 398.878 1313.07 400.018 1314.21 400.913C1315.19 401.564 1316.24 401.889 1317.38 401.889C1317.79 401.889 1318.48 401.808 1319.46 401.645C1320.52 401.483 1321.49 401.198 1322.39 400.791Z" fill="#E63838"/>
<path d="M344.244 218.372C345.049 222.058 347.333 225.653 351.104 229.168C354.874 232.683 359.631 234.349 365.402 234.175C376.077 233.861 387.589 228.046 399.922 216.723C405.353 211.85 409.914 207.412 413.594 203.427C417.273 199.442 420.13 196.154 422.161 193.572C424.195 190.981 425.203 189.483 425.192 189.059C425.178 188.644 424.664 188.44 423.643 188.472C420.934 188.549 414.271 192.375 403.68 199.93C396.867 204.174 388.659 208.552 379.062 213.046C369.462 217.548 363.727 219.816 361.863 219.871C359.998 219.926 359.056 219.664 359.033 219.065C359.017 218.478 359.652 217.405 360.955 215.851C370.366 203.278 385.083 192.011 405.096 182.059C425.115 172.117 445.306 164.736 465.669 159.915C486.029 155.103 503.286 152.48 517.44 152.057C531.596 151.634 541.969 152.339 548.561 154.163C555.157 155.987 558.517 158.838 558.656 162.709C558.738 165.235 557.394 167.887 554.596 170.665C541.324 184.374 521.583 197.593 495.389 210.335C483.037 216.26 466.788 222.307 446.636 228.466L445.615 228.498C444.762 228.518 444.33 228.116 444.304 227.277C444.278 226.438 445.323 224.806 447.447 222.383C455.377 211.2 470.061 194.16 491.504 171.283C492.822 170.068 493.45 168.659 493.397 167.058C493.344 165.457 492.408 164.097 490.59 162.969C488.772 161.842 487.22 161.302 485.958 161.336C484.685 161.378 483.309 162.089 481.828 163.48C472.012 169.329 461.603 177.391 450.592 187.662C424.616 212.031 400.192 241.9 377.305 277.287C374.121 283.451 372.6 288.589 372.737 292.717C372.874 296.845 374.098 300.299 376.403 303.097C378.699 305.892 380.885 307.768 382.954 308.714C385.023 309.661 386.519 310.119 387.451 310.091C388.384 310.064 388.806 308.705 388.708 306.011C392.587 295.455 407.689 273.01 433.998 238.693C434.48 238.01 434.942 237.655 435.359 237.643C435.777 237.631 436.092 237.964 436.281 238.626C444.62 249.331 464.762 270.473 496.721 302.038C504.25 308.893 513.522 312.161 524.538 311.824C535.554 311.497 541 309.477 540.872 305.78C540.856 305.203 540.7 304.635 540.408 304.069C542.88 304.98 545.751 305.386 548.994 305.29C560.01 304.962 574.084 299.871 591.22 290.008C597.122 286.609 602.771 283.151 608.191 279.642C606.442 283.341 605.593 286.364 605.677 288.7C605.825 293.08 606.957 296.414 609.076 298.712C611.19 301.009 612.892 302.344 614.178 302.727C615.464 303.11 616.53 303.367 617.386 303.52C622.466 303.371 629.021 300.27 637.042 294.217C645.064 288.164 650.705 283.366 653.979 279.807C657.254 276.258 659.951 273.272 662.075 270.849C662.725 270.153 663.184 269.807 663.437 269.799C663.69 269.79 663.827 269.999 663.838 270.422C663.85 270.846 663.311 273.723 662.227 279.063C661.131 284.401 660.631 288.425 660.729 291.119C660.818 293.81 662.299 296.128 665.162 298.062C668.026 299.995 671.163 301.171 674.571 301.577C678.126 301.468 681.417 300.954 684.44 300.024C692.939 297.178 705.58 288.806 722.338 274.931C721.405 278.524 720.968 281.811 721.065 284.781C721.436 295.559 729.587 300.707 745.519 300.234C751.956 300.047 760.061 296.559 769.845 289.783C779.623 283.006 789.345 274.588 799.009 264.529L798.523 265.298C800.566 265.578 802.095 265.701 803.117 265.668C807.537 265.533 812.558 264.164 818.178 261.568C818.005 261.818 817.811 262.072 817.638 262.322C811.25 271.528 808.128 278.321 808.287 282.694C808.435 287.074 809.564 290.407 811.686 292.706C813.797 295.002 815.502 296.338 816.786 296.73C818.069 297.112 819.137 297.37 819.993 297.522C825.073 297.373 831.628 294.273 839.647 288.219C847.669 282.166 853.309 277.368 856.587 273.81C859.858 270.26 862.558 267.274 864.683 264.851C865.332 264.155 865.788 263.809 866.041 263.8C866.294 263.792 866.431 264.039 866.448 264.55L864.966 280.769C865.136 285.986 865.937 289.585 867.373 291.566C868.797 293.544 871.118 294.491 874.344 294.39C877.557 294.295 885.541 289.427 898.274 279.779C903.565 275.748 909.547 270.898 916.224 265.22C922.899 259.552 928.836 254.403 934.016 249.778C934.849 249.045 935.689 248.285 936.527 247.535C937.273 247.161 937.968 246.726 938.603 246.227C949.133 236.811 956.538 230.106 960.817 226.109C962.244 228.088 965.437 229.727 970.403 231.01C975.37 232.293 979.285 232.893 982.172 232.806C968.62 243.314 959.782 251.624 955.671 257.731C951.547 263.835 949.603 270.082 949.818 276.478C950.226 288.26 956.357 293.976 968.215 293.625C975.841 293.403 987.881 287.098 1004.35 274.732C1020.8 262.364 1035.51 249.795 1048.49 237.028C1061.45 224.258 1067.9 216.829 1067.83 214.716C1067.76 212.613 1067.13 211.575 1065.94 211.611C1014.66 250.039 984.445 269.38 975.294 269.653C974.44 269.672 974.013 269.433 974.002 268.933C973.896 265.741 976.208 261.456 980.944 256.09C985.676 250.723 990.776 245.857 996.217 241.483C1001.67 237.112 1007.25 232.815 1012.96 228.599C1018.67 224.382 1022.05 221.886 1023.13 221.095C1024.2 220.302 1024.73 219.323 1024.68 218.146C1024.64 216.968 1022.41 213.664 1017.98 208.234C1016.76 207.092 1014.83 206.557 1012.2 206.637C1009.57 206.716 1006.08 207.54 1001.73 209.097C997.365 210.663 993.958 211.481 991.5 211.549C989.039 211.625 983.158 209.524 973.856 205.253C964.545 200.98 958.961 198.872 957.098 198.927C952.183 199.073 948.641 199.73 946.473 200.889C944.311 202.049 943.279 204.316 943.401 207.676C943.421 208.178 943.697 209.017 944.254 210.179C945.866 213.613 949.382 217.07 954.781 220.553C924.12 244.172 901.158 259.922 885.907 267.776C886.14 264.568 888.025 260.303 891.577 254.964C893.677 251.866 895.699 249.071 897.651 246.573C899.602 244.075 902.849 239.973 907.413 234.275C911.963 228.582 915.949 223.493 919.357 219.005C921.662 216.917 922.785 215.029 922.726 213.34C922.665 211.66 922.115 210.366 921.063 209.472C920.013 208.579 918.975 208.062 917.952 207.922C916.019 205.96 914.372 204.993 913.021 205.033C911.661 205.069 910.172 205.961 908.532 207.692C906.519 203.376 903.898 201.173 900.671 201.102C892.192 201.354 882.349 204.844 871.13 211.58C859.979 218.276 849.914 226.067 840.925 234.939C838.087 236.894 835.095 238.893 831.92 240.92C822.713 246.837 815.415 250.551 810.037 252.064C822.408 236.87 828.495 226.159 828.285 219.927C828.075 213.705 825.001 208.311 819.085 203.772C817.342 202.645 815.463 202.113 813.432 202.171C802.77 202.833 790.884 207.64 777.789 216.626C776.935 216.646 776.509 216.331 776.478 215.653C776.456 214.978 776.929 214.044 777.908 212.834L797.197 196.339C810.227 185.51 823.155 172.903 835.984 158.54C848.804 144.174 855.106 133.54 854.874 126.633C854.709 121.923 850.226 119.699 841.417 119.958C836.502 120.104 833.08 120.506 831.154 121.147C829.225 121.796 826.881 123.931 824.118 127.55C821.358 131.17 818.622 135.513 815.91 140.561C813.196 145.617 807.595 154.117 799.097 166.084C790.6 178.052 780.57 191.11 769.007 205.267C769.003 205.104 767.316 206.831 763.97 210.476C760.613 214.117 756.534 218.952 751.743 224.991C746.944 231.038 742.2 237.453 737.516 244.247C737.024 244.966 736.542 245.688 736.059 246.41C721.75 256.265 708.553 264.842 696.481 272.133C687.838 277.446 682.969 280.118 681.865 280.147C680.758 280.176 680.204 279.941 680.184 279.439C679.978 273.552 685.682 262.844 697.284 247.339C708.88 231.832 726.264 212.944 749.43 190.691C759.447 180.957 767.604 172.884 773.922 166.461C780.228 160.044 786.099 153.127 791.536 145.722C796.969 138.316 799.613 132.514 799.461 128.295C799.372 125.604 797.884 124.297 795.006 124.386C786.527 124.638 774.87 132.107 760.019 146.78C745.167 161.461 732.387 176 721.681 190.378C710.977 204.766 705.729 212.547 705.935 213.721C703.746 209.234 701.126 207.04 698.074 207.131C689.595 207.383 679.794 210.875 668.663 217.605C657.517 224.342 647.361 232.184 638.159 241.133C635.447 243.781 632.865 246.435 630.408 249.104C615.064 260.002 602.324 268.165 592.19 273.585C577.361 281.524 563.506 285.689 550.627 286.072C548.572 285.464 547.496 283.76 547.404 280.982C547.31 278.204 548.54 274.547 551.095 270.002C553.651 265.467 555.53 263.17 556.716 263.133C557.899 263.097 558.842 263.321 559.539 263.814C560.983 266.304 563.099 267.502 565.898 267.42C568.694 267.337 574.375 265.017 582.965 260.464C591.549 255.909 599.699 250.024 607.427 242.802C615.151 235.58 618.917 229.189 618.728 223.632C618.624 220.602 616.778 217.536 613.202 214.446C609.618 211.354 605.797 209.862 601.724 209.984C592.574 210.257 582.184 214.146 570.565 221.654C558.946 229.162 548.966 238.639 540.619 250.092C532.269 261.545 528.266 272.24 528.61 282.17C528.837 288.665 530.111 293.796 532.44 297.556C517.348 286.619 498.693 269.211 476.46 245.3C475.756 244.653 475.402 244.07 475.382 243.568C475.326 242.052 476.985 240.823 480.35 239.88C514.106 225.063 537.664 211.806 551.009 200.124C564.354 188.442 570.833 176.956 570.445 165.676C570.198 158.44 567.649 152.155 562.807 146.823C557.961 141.49 551.838 137.507 544.456 134.851C529.861 129.726 515.275 127.376 500.704 127.812C483.929 128.307 467.714 130.559 452.081 134.563C436.438 138.565 423.281 143.213 412.605 148.497C401.926 153.791 391.903 159.728 382.551 166.324C373.191 172.917 366.127 178.567 361.372 183.258C356.608 187.947 352.281 192.801 348.379 197.798C344.474 202.803 342.613 207.916 342.797 213.128L344.248 218.392L344.244 218.372ZM874.937 229.521C885.021 221.889 893.283 217.984 899.725 217.789C900.232 217.771 900.498 217.891 900.497 218.148C900.507 218.4 900.177 218.876 899.528 219.571L885.71 232.37C876.669 240.893 867.076 249.441 856.941 257.997C846.803 266.552 840.713 270.866 838.676 270.923C838.335 270.936 838.165 270.777 838.152 270.429C838.05 267.572 841.637 261.946 848.896 253.556C856.155 245.167 864.836 237.159 874.926 229.528L874.937 229.521ZM779.61 232.477C790.475 222.721 800.317 217.71 809.128 217.442C809.634 217.425 809.897 217.667 809.914 218.179C810.02 221.381 806.32 228.391 798.799 239.234C791.28 250.068 782.132 260.542 771.373 270.633C760.603 280.73 751.744 285.879 744.801 286.084C743.615 286.12 742.998 285.543 742.965 284.369C742.835 280.5 746.195 273.322 753.043 262.834C759.897 252.357 768.757 242.236 779.613 232.468L779.61 232.477ZM697.125 223.807C697.628 223.789 697.886 223.906 697.894 224.166C697.901 224.426 697.574 224.893 696.924 225.589L683.36 238.379C674.146 246.913 664.473 255.459 654.338 264.014C644.202 272.57 638.112 276.885 636.073 276.94C635.731 276.954 635.553 276.792 635.549 276.447C635.447 273.589 639.037 267.964 646.296 259.575C653.555 251.186 662.232 243.176 672.325 235.546C682.406 227.913 690.672 224.009 697.123 223.816L697.125 223.807ZM578.483 237.064C588.677 227.75 595.986 223.026 600.397 222.889C601.418 222.856 601.936 223.263 601.962 224.102C602.063 227.131 596.701 232.94 585.886 241.514C575.068 250.097 567.795 254.439 564.066 254.549C563.559 254.566 563.293 254.409 563.289 254.064C563.222 252.047 568.277 246.375 578.486 237.055L578.483 237.064Z" fill="#DDDDDD"/>
</svg>
